<svg xmlns="http://www.w3.org/2000/svg" version="1.1" xmlns:xlink="http://www.w3.org/1999/xlink" xmlns:svgjs="http://svgjs.dev/svgjs" width="1500" height="1500" viewBox="0 0 1500 1500"><rect width="1500" height="1500" fill="#ffffff"></rect><g transform="matrix(0.6666666666666666,0,0,0.6666666666666666,249.39393939393938,438.58569500674776)"><svg viewBox="0 0 396 247" data-background-color="#f3ffc6" preserveAspectRatio="xMidYMid meet" height="935" width="1500" xmlns="http://www.w3.org/2000/svg" xmlns:xlink="http://www.w3.org/1999/xlink"><g id="tight-bounds" transform="matrix(1,0,0,1,0.2400000000000091,-0.09999999999999432)"><svg viewBox="0 0 395.52 247.2" height="247.2" width="395.52"><g><svg></svg></g><g><svg viewBox="0 0 395.52 247.2" height="247.2" width="395.52"><g transform="matrix(1,0,0,1,75.54432,93.18213230296938)"><svg viewBox="0 0 244.43135999999998 60.83573539406124" height="60.83573539406124" width="244.43135999999998"><g><svg viewBox="0 0 244.43135999999998 60.83573539406124" height="60.83573539406124" width="244.43135999999998"><g><svg viewBox="0 0 244.43135999999998 60.83573539406124" height="60.83573539406124" width="244.43135999999998"><g><svg viewBox="0 0 244.43135999999998 60.83573539406124" height="60.83573539406124" width="244.43135999999998"><g id="textblocktransform"><svg viewBox="0 0 244.43135999999998 60.83573539406124" height="60.83573539406124" width="244.43135999999998" id="textblock"><g><svg viewBox="0 0 244.43135999999998 36.91569986729858" height="36.91569986729858" width="244.43135999999998"><g transform="matrix(1,0,0,1,0,0)"><svg width="244.43135999999998" viewBox="4.49 -35.01 231.79999999999998 35.01" height="36.91569986729858" data-palette-color="#306b34"><path d="M4.49-5L4.49-30Q4.49-31.03 4.88-31.95 5.27-32.86 5.96-33.53 6.64-34.2 7.56-34.61 8.47-35.01 9.5-35.01L9.5-35.01 28.49-35.01Q29.52-35.01 30.43-34.61 31.35-34.2 32.03-33.53 32.71-32.86 33.11-31.95 33.5-31.03 33.5-30L33.5-30 33.5-25.49 28.49-25.49 28.49-30 9.5-30 9.5-5 28.49-5 28.49-9.5 33.5-9.5 33.5-5Q33.5-3.98 33.11-3.06 32.71-2.15 32.03-1.46 31.35-0.78 30.43-0.39 29.52 0 28.49 0L28.49 0 9.5 0Q8.47 0 7.56-0.39 6.64-0.78 5.96-1.46 5.27-2.15 4.88-3.06 4.49-3.98 4.49-5L4.49-5ZM63.5-21.19L63.5-4.81Q63.5-3.81 63.12-2.93 62.74-2.05 62.09-1.4 61.45-0.76 60.58-0.38 59.71 0 58.71 0L58.71 0 45.8 0Q44.82 0 43.94-0.38 43.06-0.76 42.42-1.4 41.77-2.05 41.39-2.93 41.01-3.81 41.01-4.81L41.01-4.81 41.01-21.19Q41.01-22.19 41.39-23.07 41.77-23.95 42.42-24.6 43.06-25.24 43.94-25.62 44.82-26 45.8-26L45.8-26 58.71-26Q59.71-26 60.58-25.62 61.45-25.24 62.09-24.6 62.74-23.95 63.12-23.07 63.5-22.19 63.5-21.19L63.5-21.19ZM58.71-21.19L45.8-21.19 45.8-4.81 58.71-4.81 58.71-21.19ZM94.5-21.19L94.5 0 89.69 0 89.69-21.19 76.29-21.19 76.29 0 71.5 0 71.5-26 76.29-26 76.29-21.41Q76.34-22.36 76.73-23.21 77.12-24.05 77.77-24.67 78.41-25.29 79.27-25.65 80.12-26 81.1-26L81.1-26 89.69-26Q90.69-26 91.57-25.62 92.45-25.24 93.1-24.6 93.75-23.95 94.12-23.07 94.5-22.19 94.5-21.19L94.5-21.19ZM101.99-4.81L118.21-4.81 118.21-10.84 106.8-10.84Q105.8-10.84 104.92-11.22 104.05-11.6 103.4-12.24 102.75-12.89 102.37-13.77 101.99-14.65 101.99-15.65L101.99-15.65 101.99-21.19Q101.99-22.19 102.37-23.07 102.75-23.95 103.4-24.6 104.05-25.24 104.92-25.62 105.8-26 106.8-26L106.8-26 122.01-26 122.01-21.19 106.8-21.19 106.8-15.65 118.21-15.65Q119.21-15.65 120.07-15.27 120.94-14.89 121.6-14.25 122.26-13.6 122.64-12.72 123.01-11.84 123.01-10.84L123.01-10.84 123.01-4.81Q123.01-3.81 122.64-2.93 122.26-2.05 121.6-1.4 120.94-0.76 120.07-0.38 119.21 0 118.21 0L118.21 0 101.99 0 101.99-4.81ZM128.99-21.19L128.99-26 135.34-26 135.34-34.01 140.15-34.01 140.15-26 148.7-26 148.7-21.19 140.15-21.19 140.15-4.81 148.7-4.81 148.7 0 140.15 0Q139.17 0 138.3-0.38 137.42-0.76 136.76-1.4 136.1-2.05 135.72-2.93 135.34-3.81 135.34-4.81L135.34-4.81 135.34-21.19 128.99-21.19ZM171.4-21.19L161.49-21.19 161.49 0 156.7 0 156.7-26 161.49-26 161.49-21.41Q161.54-22.36 161.93-23.21 162.32-24.05 162.96-24.67 163.61-25.29 164.47-25.65 165.32-26 166.3-26L166.3-26 171.4-26Q172.4-26 173.27-25.62 174.13-25.24 174.79-24.6 175.45-23.95 175.83-23.07 176.21-22.19 176.21-21.19L176.21-21.19 176.21-16.8 171.4-16.8 171.4-21.19ZM182.19-4.81L182.19-26 186.97-26 186.97-4.81 200.38-4.81 200.38-26 205.19-26 205.19 0 200.38 0 200.38-4.39Q200.3-3.49 199.89-2.69 199.47-1.88 198.83-1.28 198.18-0.68 197.35-0.34 196.52 0 195.59 0L195.59 0 186.97 0Q186 0 185.12-0.38 184.24-0.76 183.59-1.4 182.94-2.05 182.57-2.93 182.19-3.81 182.19-4.81L182.19-4.81ZM230.04-26L235.85-26 226.4-13.31 236.29 0 230.48 0 223.49-9.4 216.49 0 210.68 0 220.59-13.31 211.14-26 216.93-26 223.49-17.21 230.04-26Z" opacity="1" transform="matrix(1,0,0,1,0,0)" fill="#000000" class="wordmark-text-0" data-fill-palette-color="primary" id="text-0"></path></svg></g></svg></g><g transform="matrix(1,0,0,1,0,45.63061062917096)"><svg viewBox="0 0 244.43135999999998 15.20512476489028" height="15.20512476489028" width="244.43135999999998"><g transform="matrix(1,0,0,1,0,0)"><svg width="244.43135999999998" viewBox="4.49 -36.01 747.59 46.51" height="15.20512476489028" data-palette-color="#1c5253"><path d="M4.49-35.01L9.5-35.01 9.5-19.9 26.2-35.01 33.25-35.01 14.31-17.85 34.01 0 26.95 0 9.5-15.75 9.5 0 4.49 0 4.49-35.01ZM60.06-21.19L60.06-10.55 42.84-10.55 42.84-4.81 60.06-4.81 60.06 0 42.84 0Q41.87 0 40.99-0.38 40.11-0.76 39.46-1.4 38.82-2.05 38.44-2.93 38.06-3.81 38.06-4.81L38.06-4.81 38.06-21.19Q38.06-22.19 38.44-23.07 38.82-23.95 39.46-24.6 40.11-25.24 40.99-25.62 41.87-26 42.84-26L42.84-26 55.25-26Q56.25-26 57.13-25.62 58.01-25.24 58.65-24.6 59.3-23.95 59.68-23.07 60.06-22.19 60.06-21.19L60.06-21.19ZM55.25-21.19L42.84-21.19 42.84-15.36 55.25-15.36 55.25-21.19ZM90.06-21.19L90.06-10.55 72.85-10.55 72.85-4.81 90.06-4.81 90.06 0 72.85 0Q71.87 0 70.99-0.38 70.11-0.76 69.47-1.4 68.82-2.05 68.44-2.93 68.06-3.81 68.06-4.81L68.06-4.81 68.06-21.19Q68.06-22.19 68.44-23.07 68.82-23.95 69.47-24.6 70.11-25.24 70.99-25.62 71.87-26 72.85-26L72.85-26 85.25-26Q86.25-26 87.13-25.62 88.01-25.24 88.65-24.6 89.3-23.95 89.68-23.07 90.06-22.19 90.06-21.19L90.06-21.19ZM85.25-21.19L72.85-21.19 72.85-15.36 85.25-15.36 85.25-21.19ZM121.06-21.19L121.06-4.81Q121.06-3.81 120.68-2.93 120.31-2.05 119.66-1.4 119.01-0.76 118.13-0.38 117.25 0 116.25 0L116.25 0 102.85 0 102.85 10.5 98.06 10.5 98.06-26 102.85-26 102.85-21.61Q102.92-22.53 103.34-23.33 103.75-24.12 104.39-24.72 105.02-25.32 105.86-25.66 106.71-26 107.66-26L107.66-26 116.25-26Q117.25-26 118.13-25.62 119.01-25.24 119.66-24.6 120.31-23.95 120.68-23.07 121.06-22.19 121.06-21.19L121.06-21.19ZM102.85-4.81L116.25-4.81 116.25-21.19 102.85-21.19 102.85-4.81ZM129.31-26L134.12-26 134.12 0 129.31 0 129.31-26ZM129.07-31.01L129.07-36.01 134.37-36.01 134.37-31.01 129.07-31.01ZM165.37-21.19L165.37 0 160.56 0 160.56-21.19 147.16-21.19 147.16 0 142.37 0 142.37-26 147.16-26 147.16-21.41Q147.2-22.36 147.59-23.21 147.99-24.05 148.63-24.67 149.28-25.29 150.13-25.65 150.99-26 151.97-26L151.97-26 160.56-26Q161.56-26 162.44-25.62 163.32-25.24 163.96-24.6 164.61-23.95 164.99-23.07 165.37-22.19 165.37-21.19L165.37-21.19ZM173.37-5.81L173.37-21.19Q173.37-22.19 173.75-23.07 174.13-23.95 174.78-24.6 175.42-25.24 176.3-25.62 177.18-26 178.16-26L178.16-26 186.78-26Q187.73-26 188.58-25.65 189.44-25.29 190.09-24.67 190.73-24.05 191.13-23.21 191.54-22.36 191.56-21.41L191.56-21.41 191.56-26 196.37-26 196.37 5.69Q196.37 6.69 195.99 7.57 195.61 8.45 194.97 9.09 194.32 9.74 193.44 10.12 192.56 10.5 191.56 10.5L191.56 10.5 176.38 10.5 176.38 5.69 191.56 5.69 191.56-1 178.16-1Q177.18-1 176.3-1.38 175.42-1.76 174.78-2.4 174.13-3.05 173.75-3.93 173.37-4.81 173.37-5.81L173.37-5.81ZM178.16-5.81L191.56-5.81 191.56-21.19 178.16-21.19 178.16-5.81ZM225.91 10.5L221.12 10.5 226.57-2.34 216.36-26 221.42-26 229.01-8.11 236.6-26 241.65-26 225.91 10.5ZM269.14-21.19L269.14-4.81Q269.14-3.81 268.76-2.93 268.39-2.05 267.74-1.4 267.09-0.76 266.23-0.38 265.36 0 264.36 0L264.36 0 251.44 0Q250.47 0 249.59-0.38 248.71-0.76 248.06-1.4 247.41-2.05 247.04-2.93 246.66-3.81 246.66-4.81L246.66-4.81 246.66-21.19Q246.66-22.19 247.04-23.07 247.41-23.95 248.06-24.6 248.71-25.24 249.59-25.62 250.47-26 251.44-26L251.44-26 264.36-26Q265.36-26 266.23-25.62 267.09-25.24 267.74-24.6 268.39-23.95 268.76-23.07 269.14-22.19 269.14-21.19L269.14-21.19ZM264.36-21.19L251.44-21.19 251.44-4.81 264.36-4.81 264.36-21.19ZM277.15-4.81L277.15-26 281.93-26 281.93-4.81 295.34-4.81 295.34-26 300.15-26 300.15 0 295.34 0 295.34-4.39Q295.26-3.49 294.85-2.69 294.43-1.88 293.79-1.28 293.14-0.68 292.31-0.34 291.48 0 290.55 0L290.55 0 281.93 0Q280.96 0 280.08-0.38 279.2-0.76 278.55-1.4 277.9-2.05 277.53-2.93 277.15-3.81 277.15-4.81L277.15-4.81ZM322.85-21.19L312.94-21.19 312.94 0 308.15 0 308.15-26 312.94-26 312.94-21.41Q312.99-22.36 313.38-23.21 313.77-24.05 314.41-24.67 315.06-25.29 315.91-25.65 316.77-26 317.75-26L317.75-26 322.85-26Q323.85-26 324.72-25.62 325.58-25.24 326.24-24.6 326.9-23.95 327.28-23.07 327.66-22.19 327.66-21.19L327.66-21.19 327.66-16.8 322.85-16.8 322.85-21.19ZM347.11-21.19L347.11-26 353.46-26 353.46-34.01 358.27-34.01 358.27-26 366.81-26 366.81-21.19 358.27-21.19 358.27-4.81 366.81-4.81 366.81 0 358.27 0Q357.29 0 356.41-0.38 355.53-0.76 354.87-1.4 354.22-2.05 353.84-2.93 353.46-3.81 353.46-4.81L353.46-4.81 353.46-21.19 347.11-21.19ZM396.82-21.19L396.82-10.55 379.6-10.55 379.6-4.81 396.82-4.81 396.82 0 379.6 0Q378.63 0 377.75-0.38 376.87-0.76 376.22-1.4 375.58-2.05 375.2-2.93 374.82-3.81 374.82-4.81L374.82-4.81 374.82-21.19Q374.82-22.19 375.2-23.07 375.58-23.95 376.22-24.6 376.87-25.24 377.75-25.62 378.63-26 379.6-26L379.6-26 392.01-26Q393.01-26 393.89-25.62 394.76-25.24 395.41-24.6 396.06-23.95 396.44-23.07 396.82-22.19 396.82-21.19L396.82-21.19ZM392.01-21.19L379.6-21.19 379.6-15.36 392.01-15.36 392.01-21.19ZM404.82-4.81L404.82-11.35Q404.82-12.35 405.2-13.22 405.58-14.09 406.22-14.75 406.87-15.41 407.75-15.78 408.63-16.16 409.61-16.16L409.61-16.16 422.01-16.16 422.01-21.19 406.31-21.19 406.31-26 422.01-26Q423.01-26 423.89-25.62 424.77-25.24 425.41-24.6 426.06-23.95 426.44-23.07 426.82-22.19 426.82-21.19L426.82-21.19 426.82 0 422.01 0 422.01-4.39Q421.94-3.49 421.52-2.69 421.11-1.88 420.46-1.28 419.81-0.68 418.98-0.34 418.15 0 417.22 0L417.22 0 409.61 0Q408.63 0 407.75-0.38 406.87-0.76 406.22-1.4 405.58-2.05 405.2-2.93 404.82-3.81 404.82-4.81L404.82-4.81ZM409.61-11.35L409.61-4.81 422.01-4.81 422.01-11.35 409.61-11.35ZM466.42-21.19L455.43-21.19 455.43 0 450.62 0 450.62-21.19 439.61-21.19 439.61 0 434.82 0 434.82-26 439.61-26 439.61-21.41Q439.66-22.36 440.05-23.21 440.44-24.05 441.09-24.67 441.73-25.29 442.59-25.65 443.44-26 444.42-26L444.42-26 450.62-26Q451.57-26 452.43-25.65 453.28-25.29 453.94-24.67 454.6-24.05 455-23.21 455.4-22.36 455.43-21.41L455.43-21.41Q455.48-22.36 455.86-23.21 456.23-24.05 456.88-24.67 457.53-25.29 458.38-25.65 459.24-26 460.21-26L460.21-26 466.42-26Q467.42-26 468.29-25.62 469.17-25.24 469.82-24.6 470.47-23.95 470.85-23.07 471.22-22.19 471.22-21.19L471.22-21.19 471.22 0 466.42 0 466.42-21.19ZM494.22-4.81L494.22-26 499-26 499-4.81 512.41-4.81 512.41-26 517.22-26 517.22 0 512.41 0 512.41-4.39Q512.33-3.49 511.92-2.69 511.5-1.88 510.86-1.28 510.21-0.68 509.38-0.34 508.55 0 507.62 0L507.62 0 499 0Q498.03 0 497.15-0.38 496.27-0.76 495.62-1.4 494.97-2.05 494.6-2.93 494.22-3.81 494.22-4.81L494.22-4.81ZM548.22-21.19L548.22-4.81Q548.22-3.81 547.84-2.93 547.46-2.05 546.82-1.4 546.17-0.76 545.29-0.38 544.41 0 543.41 0L543.41 0 530.01 0 530.01 10.5 525.22 10.5 525.22-26 530.01-26 530.01-21.61Q530.08-22.53 530.49-23.33 530.91-24.12 531.54-24.72 532.18-25.32 533.02-25.66 533.86-26 534.82-26L534.82-26 543.41-26Q544.41-26 545.29-25.62 546.17-25.24 546.82-24.6 547.46-23.95 547.84-23.07 548.22-22.19 548.22-21.19L548.22-21.19ZM530.01-4.81L543.41-4.81 543.41-21.19 530.01-21.19 530.01-4.81ZM569.7-21.19L569.7-26 576.05-26 576.05-34.01 580.86-34.01 580.86-26 589.4-26 589.4-21.19 580.86-21.19 580.86-4.81 589.4-4.81 589.4 0 580.86 0Q579.88 0 579-0.38 578.12-0.76 577.46-1.4 576.8-2.05 576.42-2.93 576.05-3.81 576.05-4.81L576.05-4.81 576.05-21.19 569.7-21.19ZM619.89-21.19L619.89-4.81Q619.89-3.81 619.51-2.93 619.13-2.05 618.49-1.4 617.84-0.76 616.97-0.38 616.11 0 615.11 0L615.11 0 602.19 0Q601.21 0 600.34-0.38 599.46-0.76 598.81-1.4 598.16-2.05 597.78-2.93 597.41-3.81 597.41-4.81L597.41-4.81 597.41-21.19Q597.41-22.19 597.78-23.07 598.16-23.95 598.81-24.6 599.46-25.24 600.34-25.62 601.21-26 602.19-26L602.19-26 615.11-26Q616.11-26 616.97-25.62 617.84-25.24 618.49-24.6 619.13-23.95 619.51-23.07 619.89-22.19 619.89-21.19L619.89-21.19ZM615.11-21.19L602.19-21.19 602.19-4.81 615.11-4.81 615.11-21.19ZM642.88-4.81L642.88-21.19Q642.88-22.19 643.26-23.07 643.64-23.95 644.29-24.6 644.94-25.24 645.81-25.62 646.69-26 647.67-26L647.67-26 661.07-26 661.07-36.01 665.88-36.01 665.88 0 661.07 0 661.07-4.39Q661-3.49 660.58-2.69 660.17-1.88 659.52-1.28 658.88-0.68 658.05-0.34 657.22 0 656.29 0L656.29 0 647.67 0Q646.69 0 645.81-0.38 644.94-0.76 644.29-1.4 643.64-2.05 643.26-2.93 642.88-3.81 642.88-4.81L642.88-4.81ZM647.67-21.19L647.67-4.81 661.07-4.81 661.07-21.19 647.67-21.19ZM673.89-4.81L673.89-11.35Q673.89-12.35 674.27-13.22 674.64-14.09 675.29-14.75 675.94-15.41 676.82-15.78 677.7-16.16 678.67-16.16L678.67-16.16 691.08-16.16 691.08-21.19 675.38-21.19 675.38-26 691.08-26Q692.08-26 692.96-25.62 693.83-25.24 694.48-24.6 695.13-23.95 695.51-23.07 695.88-22.19 695.88-21.19L695.88-21.19 695.88 0 691.08 0 691.08-4.39Q691-3.49 690.59-2.69 690.17-1.88 689.52-1.28 688.88-0.68 688.05-0.34 687.22 0 686.29 0L686.29 0 678.67 0Q677.7 0 676.82-0.38 675.94-0.76 675.29-1.4 674.64-2.05 674.27-2.93 673.89-3.81 673.89-4.81L673.89-4.81ZM678.67-11.35L678.67-4.81 691.08-4.81 691.08-11.35 678.67-11.35ZM702.38-21.19L702.38-26 708.72-26 708.72-34.01 713.53-34.01 713.53-26 722.08-26 722.08-21.19 713.53-21.19 713.53-4.81 722.08-4.81 722.08 0 713.53 0Q712.56 0 711.68-0.38 710.8-0.76 710.14-1.4 709.48-2.05 709.1-2.93 708.72-3.81 708.72-4.81L708.72-4.81 708.72-21.19 702.38-21.19ZM752.08-21.19L752.08-10.55 734.87-10.55 734.87-4.81 752.08-4.81 752.08 0 734.87 0Q733.89 0 733.01-0.38 732.13-0.76 731.49-1.4 730.84-2.05 730.46-2.93 730.08-3.81 730.08-4.81L730.08-4.81 730.08-21.19Q730.08-22.19 730.46-23.07 730.84-23.95 731.49-24.6 732.13-25.24 733.01-25.62 733.89-26 734.87-26L734.87-26 747.27-26Q748.27-26 749.15-25.62 750.03-25.24 750.68-24.6 751.32-23.95 751.7-23.07 752.08-22.19 752.08-21.19L752.08-21.19ZM747.27-21.19L734.87-21.19 734.87-15.36 747.27-15.36 747.27-21.19Z" opacity="1" transform="matrix(1,0,0,1,0,0)" fill="#000000" class="slogan-text-1" data-fill-palette-color="secondary" id="text-1"></path></svg></g></svg></g></svg></g></svg></g></svg></g></svg></g></svg></g><g><path d="M245.816 0c68.262 0 123.6 55.338 123.6 123.6 0 68.262-55.338 123.6-123.6 123.6-56.188 0-103.619-37.492-118.641-88.825l1.736 0c14.97 50.4 61.645 87.16 116.905 87.16 67.343 0 121.935-54.592 121.935-121.935 0-67.343-54.592-121.935-121.935-121.935-55.26 0-101.935 36.76-116.905 87.16l-1.736 0c15.021-51.332 62.453-88.825 118.641-88.825z" fill="#000000" stroke="transparent" data-fill-palette-color="tertiary"></path></g></svg></g><defs></defs></svg><rect width="395.52" height="247.2" fill="none" stroke="none" visibility="hidden"></rect></g></svg></g></svg>